HIERARCHY
ROOT Pelvis
{
	OFFSET 0.000000 0.000000 0.000000
	CHANNELS 6 Xposition Yposition Zposition Zrotation Yrotation Xrotation
	JOINT L_Hip
	{
		OFFSET 1.175911 0.000000 0.000000
		CHANNELS 3 Zrotation Yrotation Xrotation
		JOINT L_Knee
		{
			OFFSET 0.000000 -0.369102 0.000000
			CHANNELS 3 Zrotation Yrotation Xrotation
			JOINT L_Ankle
			{
				OFFSET 0.000000 -0.430693 0.000000
				CHANNELS 3 Zrotation Yrotation Xrotation
				JOINT L_Foot
				{
					OFFSET 0.000000 0.000000 0.141747
					CHANNELS 3 Zrotation Yrotation Xrotation
					End Site
					{
						OFFSET 0.000000 0.000000 0.000000
					}
				}
			}
		}
	}
	JOINT R_Hip
	{
		OFFSET -1.186012 0.000000 0.000000
		CHANNELS 3 Zrotation Yrotation Xrotation
		JOINT R_Knee
		{
			OFFSET 0.000000 -0.361480 0.000000
			CHANNELS 3 Zrotation Yrotation Xrotation
			JOINT R_Ankle
			{
				OFFSET 0.000000 -0.433973 0.000000
				CHANNELS 3 Zrotation Yrotation Xrotation
				JOINT R_Foot
				{
					OFFSET 0.000000 0.000000 0.151230
					CHANNELS 3 Zrotation Yrotation Xrotation
					End Site
					{
						OFFSET 0.000000 0.000000 0.000000
					}
				}
			}
		}
	}
	JOINT Spine1
	{
		OFFSET 0.000000 0.979888 0.000000
		CHANNELS 3 Zrotation Yrotation Xrotation
		JOINT Spine2
		{
			OFFSET 0.000000 0.160435 0.000000
			CHANNELS 3 Zrotation Yrotation Xrotation
			JOINT Spine3
			{
				OFFSET 0.000000 0.068423 0.000000
				CHANNELS 3 Zrotation Yrotation Xrotation
				JOINT Neck
				{
					OFFSET 0.000000 0.224419 0.000000
					CHANNELS 3 Zrotation Yrotation Xrotation
					JOINT Head
					{
						OFFSET 0.000000 0.000000 0.075901
						CHANNELS 3 Zrotation Yrotation Xrotation
						End Site
						{
							OFFSET 0.000000 0.000000 0.000000
						}
					}
				}
				JOINT L_Collar
				{
					OFFSET 0.152660 0.000000 0.000000
					CHANNELS 3 Zrotation Yrotation Xrotation
					JOINT L_Shoulder
					{
						OFFSET 0.000000 -0.132610 0.000000
						CHANNELS 3 Zrotation Yrotation Xrotation
						JOINT L_Elbow
						{
							OFFSET 0.000000 -0.278452 0.000000
							CHANNELS 3 Zrotation Yrotation Xrotation
							JOINT L_Wrist
							{
								OFFSET 0.000000 -0.257999 0.000000
								CHANNELS 3 Zrotation Yrotation Xrotation
								End Site
								{
									OFFSET 0.000000 0.000000 0.000000
								}
							}
						}
					}
				}
				JOINT R_Collar
				{
					OFFSET -0.160835 0.000000 0.000000
					CHANNELS 3 Zrotation Yrotation Xrotation
					JOINT R_Shoulder
					{
						OFFSET 0.000000 -0.122842 0.000000
						CHANNELS 3 Zrotation Yrotation Xrotation
						JOINT R_Elbow
						{
							OFFSET 0.000000 -0.289681 0.000000
							CHANNELS 3 Zrotation Yrotation Xrotation
							JOINT R_Wrist
							{
								OFFSET 0.000000 -0.262809 0.000000
								CHANNELS 3 Zrotation Yrotation Xrotation
								End Site
								{
									OFFSET 0.000000 0.000000 0.000000
								}
							}
						}
					}
				}
			}
		}
	}
}
MOTION
Frames: 10
Frame Time: 0.05000000
19.995409 1.750086 38.803562 0.000000 -37.305462 0.000000 -53.967968 7.086747 -4.586989 56.514389 -5.564413 -17.738807 -8.240733 2.034193 19.520201 5.794328 18.292915 10.828260 58.453579 -2.596712 -0.721094 -67.417375 3.330684 -13.254758 11.573925 -2.133832 64.252054 1.792097 -25.291760 25.140653 -0.442964 2.034422 -21.134405 -0.874033 1.138016 37.778695 4.489877 -0.014908 -13.425513 0.375991 0.572586 -7.126257 -5.669514 5.447431 -60.183105 58.553142 7.340001 4.961834 21.207577 -18.125056 10.474085 -74.934723 -13.414106 -7.913266 10.669838 5.098057 -28.055436 -53.687459 -4.796866 1.217648 -27.380302 8.389357 0.178810 75.083347 4.650152 -1.251182 -6.153124 -4.023340 -30.813493
20.771345 1.882707 39.819843 0.000000 -36.798546 0.000000 -55.108603 6.228598 -4.112453 58.159956 -5.501383 -12.373361 -9.430555 1.811290 17.271125 5.638481 17.854101 8.516129 58.335259 -1.527607 -0.388510 -66.189512 1.804674 -18.474997 11.506222 -2.901445 64.399320 1.769906 -24.999331 17.805391 -0.768405 1.528061 -21.990501 -0.773529 1.405022 39.020099 4.962129 0.198900 -13.974085 0.634233 0.567907 -6.473417 -5.606844 3.983728 -61.205694 58.816043 5.956512 3.842681 22.330448 -14.455013 8.567618 -74.778837 -10.593484 -6.264749 9.574062 4.900404 -30.193148 -53.973955 -6.016035 2.187725 -26.731205 10.785936 0.260765 75.207261 5.858883 -1.815912 -7.096287 -3.869053 -29.417191
21.480949 1.909173 40.803169 0.000000 -36.404748 0.000000 -55.587925 7.219413 -4.496777 59.974655 -6.100960 -7.802863 -10.440467 1.784019 14.561200 5.033857 18.294260 6.381743 57.663783 -0.890175 0.000413 -65.205316 0.223583 -23.727768 11.315227 -3.314619 57.780935 -0.240926 -23.515995 14.567595 -0.899467 1.357443 -22.039390 -1.115218 1.251901 39.388977 5.289330 0.278678 -14.356892 0.843106 0.766927 -6.587107 -5.306078 3.438181 -61.104020 58.546667 5.397586 3.201784 22.693922 -11.856160 7.579940 -74.639815 -8.823493 -7.160140 7.720289 4.755926 -32.272903 -53.855789 -7.138749 2.481462 -27.123438 12.923102 0.708903 75.630391 7.312887 -2.557422 -8.529188 -3.634720 -28.925844
22.144079 1.812943 41.756592 0.000000 -36.451142 0.000000 -55.835311 8.050099 -5.180939 61.089232 -6.767211 -3.074533 -11.107977 1.686719 12.395186 5.275059 18.578973 3.831997 57.011954 -0.302678 0.290403 -64.633465 -0.282130 -26.347077 11.289738 -3.381006 44.657624 -3.602081 -21.965695 15.477620 -0.772369 1.403014 -22.168520 -0.966056 1.584449 39.951740 5.450245 0.482856 -14.033235 0.879529 0.847903 -6.665130 -5.568631 2.400056 -60.419560 58.707832 4.698742 2.873152 23.955714 -10.382310 7.174689 -74.576062 -7.498316 -8.467396 5.560850 5.049578 -34.468314 -53.477328 -6.637629 2.238027 -27.138256 13.283874 1.719966 75.835700 8.157766 -2.513390 -9.005119 -3.485859 -28.312799
22.785406 1.624280 42.722408 0.000000 -36.547369 0.000000 -55.914794 8.199028 -5.278663 61.588123 -7.362393 1.716263 -11.231905 1.374561 10.578838 4.986574 18.386403 3.077125 56.606945 -0.273492 0.059180 -64.376657 -0.398089 -27.537608 10.795642 -2.969095 27.083597 -7.093542 -20.742982 18.241595 -0.518558 1.226799 -21.981528 -1.086927 1.908054 39.861732 5.526848 0.781045 -13.817276 0.938430 0.836379 -7.239475 -5.647171 2.030178 -60.673691 58.700825 4.164046 2.498402 25.036011 -8.479371 5.811930 -74.410485 -5.863680 -9.154106 3.085147 4.653018 -36.512798 -53.662406 -7.230052 2.727112 -26.842975 14.306010 2.419820 75.813003 8.608945 -2.033094 -10.605336 -3.871819 -27.075526
23.425354 1.373780 43.753029 0.000000 -36.494309 0.000000 -55.485168 9.284242 -6.089297 62.704914 -8.416104 4.556787 -12.333888 0.975648 10.626502 3.575515 17.548289 1.379420 55.946120 0.053942 0.462735 -63.593501 -0.156038 -26.795587 9.316833 -2.655967 11.909184 -10.381579 -16.930307 19.281996 0.041723 1.355955 -21.458926 -2.035900 2.229555 39.655293 5.706710 0.754887 -12.789211 1.400502 0.748223 -8.003640 -5.860021 2.446376 -61.856304 59.196457 4.211489 2.399326 25.660848 -8.109507 5.019106 -74.029251 -5.008036 -10.617550 2.125013 4.675239 -37.158241 -53.070642 -6.968891 3.309400 -26.190507 14.108933 2.842754 76.267470 8.139387 -0.854984 -11.243021 -4.072058 -25.845499
24.105793 1.126047 44.882908 0.000000 -36.827963 0.000000 -55.765971 10.537776 -6.640413 63.304686 -9.671947 6.298523 -11.858218 0.508793 13.301972 1.751897 17.139281 -0.621717 55.932976 0.414649 0.354736 -62.741230 -0.665831 -26.946367 8.918178 -2.922418 8.266329 -11.620231 -14.160037 18.827866 0.296164 1.342019 -20.214351 -2.707754 2.146946 38.401496 5.919217 0.890708 -11.694244 1.488126 1.120696 -8.242543 -5.831213 2.071726 -63.194153 59.506534 4.136036 2.335405 25.157677 -8.029319 4.710378 -73.126068 -5.299595 -12.285511 1.341265 4.937522 -38.502613 -52.880592 -6.990492 3.554957 -25.745201 14.328495 4.063294 76.265469 8.214745 -0.374346 -12.216993 -4.312755 -24.511353
24.881199 0.974561 46.152035 0.000000 -37.229397 0.000000 -56.345297 10.545834 -6.431266 64.485845 -10.272999 8.004691 -11.551229 0.245003 18.059976 1.932003 15.848877 1.151835 55.167455 0.174621 -0.049523 -60.433056 -0.652059 -28.517910 8.527546 -2.968780 14.754095 -10.173660 -13.485892 21.071369 0.168992 0.608318 -20.040800 -2.303339 1.826661 37.088941 6.097295 0.559889 -11.512350 0.998615 1.060067 -8.560233 -5.219798 1.557856 -65.086430 60.388093 3.701392 1.768420 25.497906 -7.365400 2.957199 -72.776185 -3.238225 -12.403273 1.109749 4.941697 -39.056883 -52.973871 -8.166938 4.553556 -25.029711 15.998844 4.268145 76.296095 9.030451 -0.792282 -13.964910 -4.661406 -22.211678
25.721678 1.081349 47.514717 0.000000 -37.852038 0.000000 -57.330245 9.850362 -5.813553 66.110856 -9.984757 5.839968 -11.176824 -0.124865 27.982132 2.039200 14.421733 11.987604 54.578112 0.684907 -0.627229 -59.160606 -0.859964 -28.093454 7.904085 -3.220831 22.247290 -8.386897 -12.574316 22.079189 -0.926549 -0.046058 -20.795313 -0.900281 1.592004 36.451155 6.449839 0.592112 -11.108107 0.619214 0.746471 -8.790797 -5.780063 1.041263 -65.264472 60.676061 3.913964 1.596665 25.927634 -7.426661 1.906511 -72.838005 -2.387729 -11.256241 2.127802 4.807756 -37.989587 -53.006489 -9.389009 5.433963 -24.916450 17.201135 3.937037 76.155810 9.139532 -1.338431 -14.971647 -4.827973 -20.310085
26.528231 1.272058 48.828655 0.000000 -38.406161 0.000000 -58.360094 7.769555 -4.606367 67.970641 -7.948846 -0.431394 -11.790356 0.400300 43.966635 2.676875 13.561230 26.039956 54.096218 0.963693 -0.723208 -57.985205 -0.972277 -24.690430 7.372672 -2.991649 26.030011 -7.372668 -14.795826 18.067840 -2.522853 -0.576449 -22.384369 0.526147 1.319755 37.173813 6.852836 0.424116 -10.871406 0.467209 0.470810 -9.004866 -6.186005 1.308870 -64.981614 60.449681 3.649677 1.106595 24.943207 -6.696851 1.144674 -73.370234 -2.469485 -9.815977 2.780883 5.010874 -36.338802 -52.548822 -10.352298 5.711742 -25.886441 16.558187 1.910684 76.303322 8.581360 -0.137872 -14.928521 -5.047221 -19.494246
